<svg id="Layer_1" data-name="Layer 1" xmlns="http://www.w3.org/2000/svg" width="142.69mm" height="149.56mm" viewBox="0 0 404.47 423.96">
  <defs>
    <style>
      .cls-1 {
        fill: #1582c7;
      }

      .cls-2 {
        fill: #333;
      }
    </style>
  </defs>
  <path class="cls-1" d="M1027.29,344.48V557.26a4.31,4.31,0,0,1-.44,1.9,2.61,2.61,0,0,1-1.23,1.56l-68.55,39.45a3,3,0,0,1-4.54-2.61V382.86a2.05,2.05,0,0,1-.17-.83V303a2.12,2.12,0,0,1,3.16-1.84l69.55,39.53a2.09,2.09,0,0,1,.47.36h0A4.26,4.26,0,0,1,1027.29,344.48Z" transform="translate(-622.83 -238.74)"/>
  <path class="cls-1" d="M923,287.45V614.1A10.5,10.5,0,0,1,916.1,624L851.5,662a4.77,4.77,0,0,1-7.19-4.11V243.51a4.76,4.76,0,0,1,7.19-4.1l65.08,38.36,0,0A10.52,10.52,0,0,1,923,287.45Z" transform="translate(-622.83 -238.74)"/>
  <path class="cls-2" d="M805.12,333.11,702.59,392.3V592.6a3.2,3.2,0,0,1-4.8,2.77l-70.07-40.46a7.56,7.56,0,0,1-4.89-7.08V352.3a7.44,7.44,0,0,1,.6-2.95,10.6,10.6,0,0,1,4.86-6.15l107-61.79,31.87-18.16h0l36-20.54a4.55,4.55,0,0,1,6.8,4v74.48A10.62,10.62,0,0,1,805.12,333.11Z" transform="translate(-622.83 -238.74)"/>
  <path class="cls-2" d="M740.43,406.32l-2.2,1.31A7.64,7.64,0,0,1,740.43,406.32Z" transform="translate(-622.83 -238.74)"/>
  <path class="cls-2" d="M810.43,370.67V653.19a3.52,3.52,0,0,1-5.33,3l-66.9-40a3.43,3.43,0,0,1-1.57-2,7.85,7.85,0,0,1-1.21-4.21V413.67a7.86,7.86,0,0,1,2.78-6l0,0,2.2-1.31,64.67-38.68A3.52,3.52,0,0,1,810.43,370.67Z" transform="translate(-622.83 -238.74)"/>
  <path class="cls-2" d="M738.2,407.65a8,8,0,0,0-1.4,1.55A3.52,3.52,0,0,1,738.2,407.65Z" transform="translate(-622.83 -238.74)"/>
</svg>
